<svg width="62" height="26" viewBox="0 0 62 26" fill="none" xmlns="http://www.w3.org/2000/svg">
<g id="&#235;&#167;&#129; 2">
<path id="Ellipse 5" d="M17.5 11.5C17.5 16.8101 13.8255 20.5 10 20.5C6.17452 20.5 2.5 16.8101 2.5 11.5C2.5 6.18992 6.17452 2.5 10 2.5C13.8255 2.5 17.5 6.18992 17.5 11.5Z" fill="#FFFFFA" stroke="#808080" stroke-width="5"/>
<path id="Ellipse 4" d="M59.5 11.5C59.5 16.8101 55.8255 20.5 52 20.5C48.1745 20.5 44.5 16.8101 44.5 11.5C44.5 6.18992 48.1745 2.5 52 2.5C55.8255 2.5 59.5 6.18992 59.5 11.5Z" fill="#FFFFFA" stroke="#808080" stroke-width="5"/>
<g id="Rectangle 11" filter="url(#filter0_d_56_133)">
<path d="M6 11C6 7.13401 9.13401 4 13 4H49C52.866 4 56 7.13401 56 11C56 14.866 52.866 18 49 18H13C9.13401 18 6 14.866 6 11Z" fill="#D9D9D9"/>
<path d="M7.5 11C7.5 7.96243 9.96243 5.5 13 5.5H49C52.0376 5.5 54.5 7.96243 54.5 11C54.5 14.0376 52.0376 16.5 49 16.5H13C9.96243 16.5 7.5 14.0376 7.5 11Z" stroke="#808080" stroke-width="3"/>
</g>
</g>
<defs>
<filter id="filter0_d_56_133" x="2" y="4" width="58" height="22" filterUnits="userSpaceOnUse" color-interpolation-filters="sRGB">
<feFlood flood-opacity="0" result="BackgroundImageFix"/>
<feColorMatrix in="SourceAlpha" type="matrix" values="0 0 0 0 0 0 0 0 0 0 0 0 0 0 0 0 0 0 127 0" result="hardAlpha"/>
<feOffset dy="4"/>
<feGaussianBlur stdDeviation="2"/>
<feComposite in2="hardAlpha" operator="out"/>
<feColorMatrix type="matrix" values="0 0 0 0 0 0 0 0 0 0 0 0 0 0 0 0 0 0 0.25 0"/>
<feBlend mode="normal" in2="BackgroundImageFix" result="effect1_dropShadow_56_133"/>
<feBlend mode="normal" in="SourceGraphic" in2="effect1_dropShadow_56_133" result="shape"/>
</filter>
</defs>
</svg>
